Coordinates
nRows=12
nColumns=24

# SIMM Motion File Header:
name Coordinates
datacolumns 24
datarows 12
otherdata 1
range 0.93199999999999994000 0.94299999999999995000

Units are S.I. units (second, meters, Newtons, ...)
Angles are in degrees.

endheader
time	pelvis_tx	pelvis_ty	pelvis_tz	pelvis_tilt	pelvis_list	pelvis_rotation	hip_flexion_r	hip_adduction_r	hip_rotation_r	knee_angle_r	ankle_angle_r	subtalar_angle_r	mtp_angle_r	hip_flexion_l	hip_adduction_l	hip_rotation_l	knee_angle_l	ankle_angle_l	subtalar_angle_l	mtp_angle_l	lumbar_extension	lumbar_bending	lumbar_rotation
      0.93199999999999994000	      1.84898513349600660000	      0.88885736362668966000	     -0.26320842377709469000	      2.78592592992809960000	     -2.67971078710872620000	      2.97400185781668340000	     12.52155250670168800000	      4.61280020820222790000	     12.75268471166944600000	    -13.82839098263509600000	      1.32313492083718010000	     -0.00000000000000534019	     -0.00000000000000749227	    -12.46788367510755800000	     -4.15746522674216300000	     -1.95280101543510850000	    -24.16696398735883700000	      7.27281367906115680000	     -0.00000000000009050269	     -0.00000000000005976093	    -10.99244617269774700000	      4.17635054952671860000	     -3.65437913173536530000
      0.93299999999999994000	      1.84976894509481690000	      0.88891205244911053000	     -0.26311084980471655000	      2.77420928648306120000	     -2.68843208271622740000	      2.97250688637952850000	     12.48519131021996000000	      4.62821275685755130000	     12.71663912127011800000	    -13.83780121419491700000	      1.34671406209502350000	     -0.00000000000000533188	     -0.00000000000000757766	    -12.46558629551668700000	     -4.20522211121496790000	     -2.02873043709922650000	    -24.20931057476233800000	      7.15051061404136770000	     -0.00000000000009060275	     -0.00000000000006056265	    -10.96437977817173100000	      4.18691401160611590000	     -3.65669746114248720000
      0.93399999999999994000	      1.85055242122878800000	      0.88896649838517450000	     -0.26301309025414010000	      2.76224431995131290000	     -2.69691933855831460000	      2.97076823979147210000	     12.44921770781130000000	      4.64338711254605130000	     12.67970087200571400000	    -13.84751131241699400000	      1.37093389204179550000	     -0.00000000000000532757	     -0.00000000000000767546	    -12.46320149201606500000	     -4.25283779454305310000	     -2.10458861163824860000	    -24.25103691840140400000	      7.02702792584916390000	     -0.00000000000009069110	     -0.00000000000006136586	    -10.93604856091472400000	      4.19711591326326340000	     -3.65839813675745470000
      0.93499999999999994000	      1.85133553261610650000	      0.88902069839809750000	     -0.26291516209381832000	      2.75003009319549110000	     -2.70516869673088940000	      2.96879237751597860000	     12.41363299831765600000	      4.65832224795545180000	     12.64192089482424400000	    -13.85752058294503400000	      1.39579367721320560000	     -0.00000000000000532126	     -0.00000000000000780948	    -12.46071494531487600000	     -4.30030117909433950000	     -2.18033744200871380000	    -24.29216463055050900000	      6.90237939326030410000	     -0.00000000000009077800	     -0.00000000000006216645	    -10.90745566866489300000	      4.20695476254346090000	     -3.65949381040007630000
      0.93599999999999994000	      1.85211825002196480000	      0.88907464971394790000	     -0.26281708313453395000	      2.73756588423067760000	     -2.71317645866387160000	      2.96658617786478240000	     12.37843790003201100000	      4.67301714463327670000	     12.60335065233122800000	    -13.86782736795926700000	      1.42129223660075340000	     -0.00000000000000532184	     -0.00000000000000790935	    -12.45811196050162000000	     -4.34760135142003090000	     -2.25593886804240820000	    -24.33271622060069500000	      6.77658046112328180000	     -0.00000000000009084726	     -0.00000000000006302203	    -10.87860448888744200000	      4.21642939261506560000	     -3.65999789653508900000
      0.93699999999999994000	      1.85290054424469840000	      0.88912834980640432000	     -0.26271887200466104000	      2.72485118909019250000	     -2.72093908827020000000	      2.96415692436431360000	     12.34363255031378900000	      4.68747079562461270000	     12.56404206609857100000	    -13.87842906499516700000	      1.44742793640700240000	     -0.00000000000000531901	     -0.00000000000000800169	    -12.45537749322363300000	     -4.39472758896539520000	     -2.33135490417546840000	    -24.37271506335863700000	      6.64964825767705750000	     -0.00000000000009090869	     -0.00000000000006390018	    -10.84949865395089900000	      4.22553895860624880000	     -3.65992453541822150000
      0.93799999999999994000	      1.85368238610027050000	      0.88918179638137063000	     -0.26262054812437408000	      2.71188572469623420000	     -2.72845321619607530000	      2.96151229143077320000	     12.30921650591749700000	      4.70168220922943810000	     12.52404744098172400000	    -13.88932214555661900000	      1.47419867972189000000	     -0.00000000000000531416	     -0.00000000000000810791	    -12.45249617626644000000	     -4.44166936769171980000	     -2.40654767730744100000	    -24.41218536605176600000	      6.52160161030631520000	     -0.00000000000009096696	     -0.00000000000006479477	    -10.82014204657039400000	      4.23428293560742740000	     -3.65928855508854720000
      0.93899999999999995000	      1.85446374640660050000	      0.88923498736183848000	     -0.26252213167947031000	      2.69866943173668660000	     -2.73571564410894120000	      2.95866033003138810000	     12.27518874338441200000	      4.71565041278689810000	     12.48341938934469800000	    -13.90050217370392900000	      1.50160189639068140000	     -0.00000000000000530382	     -0.00000000000000821839	    -12.44945234610430300000	     -4.48841636970707740000	     -2.48147946465884450000	    -24.45115213528023200000	      6.39246106124161620000	     -0.00000000000009102401	     -0.00000000000006569674	    -10.79053880523547100000	      4.24266111670451180000	     -3.65810543332460720000
      0.93999999999999995000	      1.85524459596775860000	      0.88928792087299136000	     -0.26242364359479836000	      2.68520247754690370000	     -2.74272334898791080000	      2.95560945335093450000	     12.24154765948064700000	      4.72937445644988670000	     12.44221075528734500000	    -13.91196382463379200000	      1.52963453287489770000	     -0.00000000000000528592	     -0.00000000000000835087	    -12.44623006940898200000	     -4.53495849087627080000	     -2.55611273162796900000	    -24.48964114395848700000	      6.26224888324332960000	     -0.00000000000009109104	     -0.00000000000006657939	    -10.76069332961434300000	      4.25067361100270790000	     -3.65639125959275370000
      0.94099999999999995000	      1.85602490555801980000	      0.88934059522754583000	     -0.26232510550727156000	      2.67148525899646880000	     -2.74947348741643300000	      2.95236842246359510000	     12.20829107168200000000	      4.74285341694836140000	     12.40047453887571300000	    -13.92370090325130000000	      1.55829304210427730000	     -0.00000000000000527297	     -0.00000000000000848193	    -12.44281316951601300000	     -4.58128584840874800000	     -2.63041016964693770000	    -24.52767889824660900000	      6.13098909527081750000	     -0.00000000000009116912	     -0.00000000000006742623	    -10.73061028593421400000	      4.25832084163989140000	     -3.65416269698817510000
      0.94199999999999995000	      1.85680464590621550000	      0.88939300891131967000	     -0.26222653973834437000	      2.65751840536701960000	     -2.75596339976632620000	      2.94894633196639870000	     12.17541621871990300000	      4.75608640126967420000	     12.35826382051487800000	    -13.93570636293526600000	      1.58757337571739600000	     -0.00000000000000527014	     -0.00000000000000859545	    -12.43918525291325100000	     -4.62738878830885360000	     -2.70433473396392770000	    -24.56529260432374400000	      5.99870747617655380000	     -0.00000000000009125189	     -0.00000000000006824906	    -10.70029461217177200000	      4.26560354364541090000	     -3.65143694424788560000
      0.94299999999999995000	      1.85758378768518440000	      0.88944516056955192000	     -0.26212796926454557000	      2.64330278084418780000	     -2.76219061385331080000	      2.94535259488089980000	     12.14291976218835400000	      4.76907255025143150000	     12.31563168607252800000	    -13.94797232838693700000	      1.61747097302226740000	     -0.00000000000000528073	     -0.00000000000000865985	    -12.43532973658231100000	     -4.67325789239991620000	     -2.77784968262728830000	    -24.60251013185407100000	      5.86543157131927820000	     -0.00000000000009132631	     -0.00000000000006907196	    -10.66975152104787800000	      4.27252276093238150000	     -3.64823169827420070000
